Simulation
nRows=32
nColumns=15
endheader
time  TH_x TH_y TH_z SC_y  SC_z  SC_x  AC_y  AC_z  AC_x  GH_y  GH_z  GH_yy  EL_x  PS_y
8.043  0.000000  0.000000  0.000000  -21.578484394667914  3.9013225433841425  -2.85543633215888  55.11769822082034  10.989907386159773  3.6731806565666605  23.347840316796454  5.064286058625839  33.893781607283934  17.1942176115709  120.000000
8.09662  0.000000  0.000000  0.000000  -21.04556143411748  3.58641844940238  -4.160747828085733  54.84728965804239  10.528452881614044  3.947677662167405  21.399233103050825  7.132251983809487  35.33165212277572  16.58953484855722  120.000000
8.15024  0.000000  0.000000  0.000000  -20.466563077193562  3.2563464292320523  -5.48666153412387  54.62454260302762  10.203511181079488  4.3357051812513685  21.22416502520631  9.419152032042385  34.77969732940186  15.838964508064246  120.000000
8.20386  0.000000  0.000000  0.000000  -19.907640354096426  2.935263737100635  -6.792052496948679  54.50181091062373  10.051940717643967  4.827435609733104  21.91515052068462  11.965198651523606  33.11406954416464  15.000088314553048  120.000000
8.257480000000001  0.000000  0.000000  0.000000  -19.453615130795885  2.6510080331550023  -8.032436810105887  54.510002944217106  10.103558350370555  5.408432912287704  22.964112185093317  14.815096779791805  30.81161812030026  14.149580698512219  120.000000
8.3111  0.000000  0.000000  0.000000  -19.178521407197813  2.4353620206040394  -9.161105419809955  54.669752798649114  10.380486535477045  6.055493417385412  24.07626567297175  17.999963208952074  28.15002511170948  13.360024702424631  120.000000
8.36472  0.000000  0.000000  0.000000  -19.113067266712537  2.314765094851464  -10.126115061381455  54.99673216805014  10.894513997068453  6.743826514915135  25.10752457860166  21.517635250864398  25.286226378250717  12.679117974466633  120.000000
8.41834  0.000000  0.000000  0.000000  -19.232281153777922  2.292102044751752  -10.872154602506448  55.483316600863745  11.63804454319527  7.458839070672949  25.98593977964698  25.303887916952274  22.34149384904332  12.121653288946582  120.000000
8.47196  0.000000  0.000000  0.000000  -19.465981605327393  2.3519745162754377  -11.351841477166104  56.098498870856396  12.585877168592072  8.191966937388745  26.683029683324232  29.23191376845371  19.415108142761856  11.677974369815923  120.000000
8.52558  0.000000  0.000000  0.000000  -19.722126327262977  2.486111671381188  -11.53145506357464  56.813270269020954  13.705764258941029  8.920821413451094  27.210910227568412  33.156869086195755  16.56409865680472  11.326650633244473  120.000000
8.5792  0.000000  0.000000  0.000000  -19.92612106120552  2.7026543742615514  -11.392105485943027  57.60708033227185  14.95477734822941  9.605001259429423  27.592306326571556  36.95314127832388  13.819597307190275  11.045664952937498  120.000000
8.63282  0.000000  0.000000  0.000000  -20.053785441098796  3.002193997738891  -10.920038555102915  58.44240179131249  16.2679765171951  10.218365898726725  27.840128992873375  40.52764999710725  11.204680529071844  10.818086080490684  120.000000
8.686440000000001  0.000000  0.000000  0.000000  -20.125477943916966  3.37771471366167  -10.104879019274035  59.269981696833554  17.560882806360418  10.756871999234571  27.96359211640197  43.82718323133075  8.735427595451473  10.63344844926368  120.000000
8.74006  0.000000  0.000000  0.000000  -20.18487090633855  3.820326047530618  -8.948735916402073  60.046910426346635  18.742382778454843  11.226923534532563  27.97340155319183  46.832971418723744  6.423545157698295  10.485936668457947  120.000000
8.79368  0.000000  0.000000  0.000000  -20.27791943873966  4.317682453862401  -7.469855093646571  60.73923078100944  19.727960825691472  11.641560756251364  27.881485087842126  49.54353504089277  4.278599448837232  10.37327374152956  120.000000
8.8473  0.000000  0.000000  0.000000  -20.43991485420384  4.8567382975143385  -5.707274406545046  61.32452171071136  20.454605459437353  12.014112777657061  27.700270625152832  51.965105176032964  2.305220503736072  10.295384494226244  120.000000
8.90092  0.000000  0.000000  0.000000  -20.686955220896802  5.420354455033543  -3.7207035336645773  61.790369102758234  20.891805553935054  12.357273401972462  27.440310231265162  54.10510157527215  0.5016160685894442  10.252391299109986  120.000000
8.95454  0.000000  0.000000  0.000000  -21.015311082326736  5.991030641607564  -1.587008239981322  62.13936431094503  21.04361830897625  12.675778616393625  27.113878702380177  55.971523111893426  -1.1408983452660333  10.244045898913363  120.000000
9.00816  0.000000  0.000000  0.000000  -21.40863070820602  6.550351301077555  0.6128621562168283  62.38370570856926  20.940477898171313  12.967404701964389  26.736389923216834  57.57580563601378  -2.631833798359099  10.266643924646631  120.000000
9.06178  0.000000  0.000000  0.000000  -21.847469895695447  7.083013587539939  2.8070686011123778  62.53950486101398  20.63267831810756  13.22398766483438  26.32841027160509  58.93635446114554  -3.972957588474944  10.310158093107852  120.000000
9.115400000000001  0.000000  0.000000  0.000000  -22.31605327319141  7.575391881662241  4.9368600985087  62.62141325432666  20.18007234075817  13.436939719556072  25.91606483989518  60.07963616979874  -5.154301411597609  10.358411871069332  120.000000
9.16902  0.000000  0.000000  0.000000  -22.80299120445239  8.016151827975714  6.95627879598333  62.64247187142815  19.641683497575034  13.597707150136413  25.531010229462513  61.034373118641085  -6.159192977619346  10.39368638549638  120.000000
9.22264  0.000000  0.000000  0.000000  -23.29731880795973  8.396142879932183  8.8294470273238  62.616868529026206  19.065396843229454  13.697537362764638  25.208081784098194  61.82514645104011  -6.975098843065972  10.403194692231267  120.000000
9.27626  0.000000  0.000000  0.000000  -23.78387133233044  8.708442527904369  10.527462641654783  62.56063999007929  18.48196713002018  13.726003751603924  24.98091923135655  62.46384552757918  -7.602944126169611  10.384218105455302  120.000000
9.32988  0.000000  0.000000  0.000000  -24.239073558579996  8.94860699283678  12.023157392997353  62.49254655771402  17.906092633685297  13.671231013186768  24.87984686550497  62.94671444858541  -8.06157422092536  10.345164946495158  120.000000
9.3835  0.000000  0.000000  0.000000  -24.630932756586223  9.11362984932225  13.290480034722947  62.43176180380515  17.34064507627751  13.521742459506992  24.930813880769282  63.25563604619728  -8.381849300640743  10.300986664481275  120.000000
9.43712  0.000000  0.000000  0.000000  -24.924721999247495  9.202699162254515  14.30522157141361  62.39418392697761  16.782499145802625  13.266797396473986  25.152888605129256  63.364383434308486  -8.595578315914725  10.264561461134578  120.000000
9.49074  0.000000  0.000000  0.000000  -25.089465751392137  9.215222245275722  15.046088806622434  62.387185095006444  16.22670383333653  12.898697485820353  25.556802655058  63.244223799575344  -8.723683238513647  10.23880871019198  120.000000
9.544360000000001  0.000000  0.000000  0.000000  -25.102613108523844  9.151048789655544  15.494160497495562  62.40826669921608  15.669268101948354  12.412979141877603  26.144257772658378  62.86805040998746  -8.77021965348348  10.213838733070254  120.000000
9.59798  0.000000  0.000000  0.000000  -24.951432817666838  9.009441817930947  15.63215357668534  62.44540236463834  15.106853964169565  11.809716725663225  26.908301065905622  62.21072634595945  -8.721923698896628  10.17143233815872  120.000000
9.6516  0.000000  0.000000  0.000000  -24.634080703474538  8.789342210206405  15.44304131080745  62.478717685764025  14.535334640264999  11.094328236062434  27.833199226870498  61.24769129005502  -8.552174055388587  10.095872162443149  120.000000
9.70522  0.000000  0.000000  0.000000  -24.16179462087281  8.489941540478096  14.910660709055954  62.48064430962378  13.949731649326752  10.277749896881078  28.891192890961815  59.953167092858074  -8.223299383655602  9.985028720024202  120.000000
